<svg width="24" height="24" viewBox="0 0 24 24" fill="none" xmlns="http://www.w3.org/2000/svg">
    <path
        d="M12.2425 14.9097L19.7752 7.37695C19.9739 7.17823 20.2079 7.08144 20.4771 7.08657C20.7463 7.09171 20.9803 7.19363 21.179 7.39235C21.3777 7.59105 21.4771 7.82502 21.4771 8.09425C21.4771 8.36348 21.3777 8.59745 21.179 8.79615L13.5232 16.4673C13.3425 16.6481 13.1399 16.7821 12.9156 16.8693C12.6912 16.9564 12.4668 17 12.2425 17C12.0181 17 11.7938 16.9564 11.5694 16.8693C11.3451 16.7821 11.1425 16.6481 10.9617 16.4673L3.29059 8.79615C3.09188 8.59745 2.99508 8.36092 3.00019 8.08655C3.00533 7.8122 3.10725 7.57567 3.30597 7.37695C3.50468 7.17823 3.73865 7.07887 4.00787 7.07887C4.2771 7.07887 4.51108 7.17823 4.70979 7.37695L12.2425 14.9097Z"
        fill="white" />
</svg>
