<svg width="1057" height="145" viewBox="0 0 1057 145" fill="none"
    xmlns="http://www.w3.org/2000/svg">
    <path
        d="M56.4487 67.8702C60.3245 66.2285 62.2624 62.5838 62.2624 56.9361C62.2624 51.0258 60.1995 47.3154 56.0736 45.805L50.8851 45.7065V67.8702H56.4487ZM50.8851 104.219V144.015H0V2.75815H61.0746C91.6224 3.28351 106.896 20.916 106.896 55.6556C106.896 80.0849 97.4985 94.6637 78.7031 99.392L108.397 101.658L90.0179 144.015H61.1997L50.8851 104.219Z"
        fill="#F9F9F9" />
    <path
        d="M216.728 2.75815V53.3899H163.155V60.7779H216.29V85.6997H163.155V93.3832H216.728V144.015H113.458V2.75815H216.728Z"
        fill="#F9F9F9" />
    <path
        d="M325.06 2.75815V53.3899H271.486V70.6284H324.622V95.5503H271.486V144.015H221.789V2.75815H325.06Z"
        fill="#F9F9F9" />
    <path d="M330.121 144.015V2.75815H379.818V93.3832H433.391V144.015H330.121Z" fill="#F9F9F9" />
    <path
        d="M541.723 2.75815V53.3899H488.149V60.7779H541.285V85.6997H488.149V93.3832H541.723V144.015H438.452V2.75815H541.723Z"
        fill="#F9F9F9" />
    <path
        d="M612.547 67.9688C611.588 63.8315 608.963 61.7629 604.67 61.7629C599.169 61.7629 596.418 65.1449 596.418 71.909V72.106C596.418 78.9357 599.169 82.3505 604.67 82.3505C609.88 82.3505 612.63 79.264 612.922 73.091H662.307C662.015 119.126 642.761 142.767 604.545 144.015C566.037 142.767 546.784 118.765 546.784 72.0075C546.784 25.8413 566.037 1.83877 604.545 0C641.928 1.7731 661.161 24.4293 662.244 67.9688H612.547Z"
        fill="#F9F9F9" />
    <path d="M737.131 53.3899V144.015H687.434V53.3899H667.368V2.75815H757.01V53.3899H737.131Z"
        fill="#F9F9F9" />
    <path d="M811.769 144.015H762.071V2.75815H811.769V144.015Z" fill="#F9F9F9" />
    <path
        d="M874.779 83.3356C880.28 83.3356 883.03 79.9207 883.03 73.091V72.9925C883.03 66.1628 880.28 62.748 874.779 62.748C869.278 62.748 866.527 66.13 866.527 72.894V73.091C866.527 79.9207 869.278 83.3356 874.779 83.3356ZM874.654 145C836.146 143.752 816.892 119.75 816.892 72.9925C816.892 26.8263 836.146 2.82382 874.654 0.985054C913.161 2.82382 932.415 26.8263 932.415 72.9925C932.415 119.75 913.161 143.752 874.654 145Z"
        fill="#F9F9F9" />
    <path
        d="M988.799 101.067V144.015H939.102V2.75815H988.799L1007.3 45.7065V2.75815H1057V144.015H1007.3L988.799 101.067Z"
        fill="#F9F9F9" />
</svg>
